<?xml version="1.0" standalone="no"?>
<!DOCTYPE svg PUBLIC "-//W3C//DTD SVG 20010904//EN"
 "http://www.w3.org/TR/2001/REC-SVG-20010904/DTD/svg10.dtd">
<svg version="1.0" xmlns="http://www.w3.org/2000/svg"
 width="480.000000pt" height="480.000000pt" viewBox="0 0 480.000000 480.000000"
 preserveAspectRatio="xMidYMid meet">

<g transform="translate(0.000000,480.000000) scale(0.100000,-0.100000)"
fill="#000000" stroke="none">
<path d="M1865 4684 c-350 -54 -623 -226 -785 -494 -118 -195 -173 -441 -150
-666 42 -404 224 -657 810 -1125 267 -213 497 -414 582 -508 193 -214 265
-551 173 -821 -14 -40 -25 -78 -25 -84 0 -19 92 79 139 150 117 175 167 392
142 621 -16 136 -42 228 -101 350 -106 217 -294 424 -650 715 -279 227 -399
336 -486 439 -176 208 -231 358 -221 603 3 85 11 140 25 186 52 159 176 304
323 378 119 59 181 74 344 79 279 10 484 -62 630 -218 97 -106 141 -217 156
-393 5 -66 12 -123 15 -128 8 -12 40 -10 52 5 29 34 50 699 24 745 -31 54
-261 136 -466 167 -128 19 -406 18 -531 -1z"/>
<path d="M793 3736 c-177 -193 -253 -441 -224 -727 20 -191 75 -338 192 -511
85 -126 332 -371 571 -566 482 -393 630 -572 682 -824 20 -96 20 -241 1 -333
-39 -186 -169 -352 -345 -439 -121 -59 -210 -77 -370 -77 -211 1 -364 45 -504
145 -150 107 -229 269 -244 499 -7 101 -7 102 -34 105 -19 2 -30 -3 -37 -17
-15 -26 -41 -391 -41 -564 0 -175 7 -195 87 -235 115 -58 261 -98 448 -123
129 -17 433 -6 553 20 355 76 606 256 751 541 95 186 128 339 118 559 -19 428
-199 692 -801 1173 -421 337 -591 493 -670 615 -138 214 -172 486 -90 731 13
40 24 75 24 77 0 16 -24 -2 -67 -49z"/>
<path d="M3080 3459 c-287 -35 -552 -168 -716 -357 -76 -87 -149 -187 -180
-246 l-28 -54 74 -71 c41 -38 80 -70 85 -71 6 0 29 39 50 88 87 192 231 361
375 436 366 193 896 140 1147 -114 83 -84 137 -239 149 -425 5 -71 12 -109 21
-117 37 -31 40 8 55 673 l3 143 -84 13 c-47 7 -143 27 -215 44 -72 17 -171 37
-221 45 -112 18 -415 26 -515 13z"/>
<path d="M4086 902 c-3 -5 -14 -53 -25 -108 -24 -118 -62 -231 -95 -288 -33
-56 -122 -138 -183 -169 -146 -75 -432 -93 -637 -41 -82 20 -248 102 -322 158
-114 85 -207 185 -316 340 -12 17 -17 9 -46 -78 -17 -54 -48 -124 -67 -157
-19 -33 -35 -66 -35 -73 0 -17 120 -131 196 -187 132 -98 310 -171 506 -211
98 -20 143 -23 333 -22 165 0 244 4 315 18 180 33 283 74 321 126 23 32 42
133 74 383 25 200 30 273 19 301 -6 17 -29 22 -38 8z"/>
</g>
</svg>
