<?xml version="1.0" encoding="UTF-8"?>
<svg id="Layer_1" data-name="Layer 1" xmlns="http://www.w3.org/2000/svg" viewBox="0 0 329.92 309">
  <defs>
    <style>
      .cls-1 {
        fill: #353535;
      }
    </style>
  </defs>
  <path class="cls-1" d="m71.35,192.01c1.18.17,2.14.43,3.1.43,24.83.06,49.66.16,74.5.02,1.85,0,4.09-1.28,5.48-2.64,16.79-16.44,33.41-33.05,50.22-49.47,2.49-2.43,3.43-4.85,3.41-8.28-.14-23.16-.19-46.33.04-69.49.04-4.42-1.41-7.39-4.46-10.39-16.54-16.22-32.96-32.55-49.27-49.01C152.04.84,149.75,0,146.53,0,99.7.07,52.87.04,6.04.03c-1.94,0-3.89,0-6.04,0v308.61h59.41V59.87c21.65,0,42.8-.05,63.94.1,1.38,0,2.98,1.29,4.1,2.37,6,5.78,12.03,11.54,17.71,17.64,1.61,1.72,2.73,4.5,2.87,6.87.4,6.48.4,13.01.04,19.48-.13,2.38-1.2,5.18-2.79,6.91-5.62,6.14-11.55,12.01-17.61,17.73-1.38,1.31-3.72,2.21-5.64,2.24-10.5.17-21,0-31.5-.03-6.28-.02-12.56,0-18.95,0v19.09c20.24,0,40.07.04,59.89-.09,1.43,0,3.13-1.03,4.23-2.09,9.84-9.48,19.65-19,29.27-28.7,1.34-1.35,2.34-3.69,2.37-5.59.2-12.66.17-25.33,0-37.99-.03-1.78-.82-4-2.05-5.23-10-10.03-20.12-19.95-30.38-29.71-1.37-1.31-3.73-2.23-5.63-2.24-25.16-.07-50.33.06-75.5.13-4.31.01-8.62,0-13.54,0v248.72h-21.15V19.28c1.09-.09,1.89-.22,2.69-.22,39.33-.01,78.66-.05,118,.09,1.85,0,4.1,1.23,5.49,2.58,13.73,13.37,27.4,26.81,40.86,40.44,1.63,1.65,2.8,4.54,2.82,6.87.2,18.66.16,37.33-.09,55.99-.03,2.15-1.27,4.8-2.82,6.35-13.18,13.21-26.48,26.32-39.98,39.2-1.91,1.82-5.1,3.19-7.72,3.22-20.5.24-41,.1-61.5.07-1.76,0-3.53,0-5.49,0v18.13Zm36.11,12.48c0,11.91-.1,23.22.12,34.53.03,1.53,1.37,3.31,2.56,4.51,20.78,20.93,41.58,41.82,62.54,62.57,1.55,1.54,4.26,2.7,6.43,2.71,30.32.2,60.65.22,90.97.07,2.16-.01,4.84-1.2,6.4-2.74,17.05-16.88,33.96-33.9,50.76-51.02,1.43-1.46,2.45-3.97,2.51-6.03.26-9.66.12-19.32.12-28.99,0-5.94,0-11.88,0-17.81h-59.93c0,7.27.19,14.09-.11,20.89-.09,2.07-1.06,4.51-2.44,6.04-5.38,5.91-10.93,11.69-16.78,17.13-1.84,1.71-4.78,3.07-7.26,3.14-12.32.35-24.66.09-36.98.33-3.48.07-5.92-1.02-8.3-3.47-8.83-9.08-17.75-18.06-26.82-26.9-2.46-2.39-3.67-4.77-3.49-8.25.28-5.51.07-11.05.07-17.3q-10.64,9.43-19.46,11.53c0,4.25.2,8.56-.06,12.85-.22,3.78,1.02,6.47,3.78,9.16,12.89,12.56,25.45,25.44,38.36,37.98,1.78,1.72,4.81,2.99,7.28,3.03,17.99.27,35.99.26,53.98.08,2.19-.02,4.88-1.08,6.46-2.58,7.86-7.44,15.14-15.52,23.19-22.74,5.78-5.18,9-10.77,7.61-18.62-.21-1.21.18-2.53.3-3.98h21.45c0,6.79.25,13.27-.13,19.71-.14,2.37-1.19,5.21-2.82,6.88-13.14,13.48-26.45,26.8-39.9,39.97-1.55,1.52-4.28,2.56-6.48,2.57-24.49.18-48.98.21-73.47,0-2.48-.02-5.55-1.27-7.31-3-17.36-17.04-34.54-34.26-51.61-51.59-1.41-1.43-2.22-4.01-2.29-6.09-.26-8.11-.11-16.23-.11-24.56h-19.13Zm222.43-93.42c0-17.05.14-33.53-.14-50-.05-2.63-1.37-5.85-3.19-7.73-16.5-16.96-33.19-33.73-50.01-50.37-1.65-1.63-4.56-2.79-6.89-2.8-30.16-.2-60.32-.22-90.48-.07-2.58.01-5.14,1.54-7.71,2.36-.1.67-.2,1.34-.29,2.01,4.11,3.85,8.06,7.89,12.41,11.46,1.85,1.52,4.5,2.88,6.81,2.91,23.66.22,47.32.1,70.98.27,2.07.01,4.67.85,6.1,2.25,13.7,13.4,27.2,26.99,40.74,40.55.92.92,2.35,2.02,2.37,3.06.19,9.06.11,18.13.11,27.01h-21.76c0-4.57-.23-8.73.07-12.85.25-3.47-.9-5.9-3.4-8.29-6.99-6.67-14.27-13.15-20.44-20.53-6.57-7.85-13.99-10.94-24.23-10.02-10.33.92-20.8.2-31.75.2,4.17,6.89,13.58,9.41,11.98,19.3,2.12,0,3.79.24,5.37-.04,15.06-2.68,26.81,2.32,35.54,14.86,1.41,2.02,3.76,3.39,5.14,5.42,1.29,1.91,2.55,4.27,2.63,6.48.31,8.1.12,16.22.12,24.58h59.94Zm-221.99,10.62c2.7,0,5,0,7.3,0,7.14.02,11.34-4.09,11.35-11.16.02-9.63.14-19.27-.07-28.89-.04-1.91-1.15-3.95-2.22-5.65-3.98-6.31-10.16-4.71-16.35-4.47v50.18Z"/>
</svg>